<svg id="Capa_1" data-name="Capa 1" xmlns="http://www.w3.org/2000/svg" viewBox="0 0 64.53 64.53"><defs><style>.cls-1{fill:#44494f;}.cls-2{fill:none;stroke:#44494f;stroke-miterlimit:10;stroke-width:4px;}</style></defs><title>EDICION DE AUDIO</title><path class="cls-1" d="M331.31,229.74v19.79c0,1-.48,1.33-1.07,1.33s-1.07-.32-1.07-1.33V229.74c0-1,.48-1.49,1.07-1.49S331.31,228.73,331.31,229.74Z" transform="translate(-287.98 -207.19)"/><path class="cls-1" d="M341.6,230.57v18c0,.91-.44,1.21-1,1.21s-1-.3-1-1.21v-18c0-.91.43-1.35,1-1.35S341.6,229.66,341.6,230.57Z" transform="translate(-287.98 -207.19)"/><path class="cls-1" d="M319.88,244.19a.89.89,0,0,1-.89-.89V236a.9.9,0,1,1,1.79,0v7.34A.89.89,0,0,1,319.88,244.19Z" transform="translate(-287.98 -207.19)"/><path class="cls-1" d="M333.74,244a.9.9,0,0,1-.9-.9v-7.34a.9.9,0,0,1,1.79,0v7.34A.89.89,0,0,1,333.74,244Z" transform="translate(-287.98 -207.19)"/><path class="cls-1" d="M323.22,246.17c-.52,0-1-.59-1-1.32V234c0-.73.43-1.32,1-1.32s.94.59.94,1.32v10.83C324.16,245.58,323.74,246.17,323.22,246.17Z" transform="translate(-287.98 -207.19)"/><path class="cls-1" d="M344.07,246.61c-.54,0-1-.62-1-1.38V233.94c0-.76.44-1.38,1-1.38s1,.62,1,1.38v11.29C345.05,246,344.62,246.61,344.07,246.61Z" transform="translate(-287.98 -207.19)"/><path class="cls-1" d="M326.84,246c-.52,0-.94-.57-.94-1.27v-10.4c0-.71.42-1.27.94-1.27s.94.56.94,1.27v10.4C327.78,245.47,327.36,246,326.84,246Z" transform="translate(-287.98 -207.19)"/><path class="cls-1" d="M337.15,246.17c-.54,0-1-.59-1-1.33v-10.9c0-.73.44-1.33,1-1.33s1,.6,1,1.33v10.9C338.14,245.58,337.7,246.17,337.15,246.17Z" transform="translate(-287.98 -207.19)"/><path class="cls-1" d="M303.53,245.74,318.75,230s-3.24-2.66-5.65,0-12.42,13.14-12.42,13.14Z" transform="translate(-287.98 -207.19)"/><polygon class="cls-1" points="12.7 28.84 15.12 31.45 17.82 28.6 15.26 25.9 12.7 28.84"/><path class="cls-1" d="M307.93,243.42l2.9-2.75,7.92,8.5s-3.58,2.27-5.9-.29Z" transform="translate(-287.98 -207.19)"/><circle class="cls-2" cx="11.36" cy="24.48" r="3.9"/><circle class="cls-2" cx="11.68" cy="40.05" r="3.9"/><circle class="cls-2" cx="32.27" cy="32.27" r="30.27"/></svg>