<svg id="Capa_1" data-name="Capa 1" xmlns="http://www.w3.org/2000/svg" viewBox="0 0 35 35.01"><defs><style>.cls-1{fill:#666a6b;fill-rule:evenodd;}</style></defs><title>icono whatsapp</title><path class="cls-1" d="M513,292.31a17.19,17.19,0,0,0-34.34-.31c0,.24,0,.49,0,.74a16.91,16.91,0,0,0,2.46,8.81L478,310.7l9.52-3A17.19,17.19,0,0,0,513,292.74C513,292.6,513,292.45,513,292.31Zm-17.17,14.77a14.41,14.41,0,0,1-7.95-2.37l-5.55,1.76,1.8-5.32a14.2,14.2,0,0,1-2.75-8.41,12.94,12.94,0,0,1,.07-1.39,14.46,14.46,0,0,1,28.78.28c0,.37,0,.74,0,1.11A14.41,14.41,0,0,1,495.82,307.08Z" transform="translate(-478 -275.69)"/><path class="cls-1" d="M503.69,296.19c-.42-.21-2.49-1.23-2.88-1.36s-.66-.21-.95.21-1.09,1.36-1.33,1.63-.49.31-.92.1a11.25,11.25,0,0,1-3.38-2.07,12.68,12.68,0,0,1-2.35-2.89c-.24-.42,0-.64.19-.85s.42-.49.63-.73l.16-.21a4.37,4.37,0,0,0,.26-.49.74.74,0,0,0,0-.74c-.1-.21-.95-2.26-1.3-3.1s-.7-.69-1-.69-.52,0-.81,0a1.53,1.53,0,0,0-1.12.52,4.67,4.67,0,0,0-1.47,3.49,5.19,5.19,0,0,0,.21,1.42,9.5,9.5,0,0,0,1.51,2.9c.21.27,2.91,4.63,7.19,6.32s4.29,1.11,5.06,1a4.2,4.2,0,0,0,2.84-2,3.56,3.56,0,0,0,.25-2C504.39,296.5,504.11,296.4,503.69,296.19Z" transform="translate(-478 -275.69)"/></svg>