<svg id="Capa_1" data-name="Capa 1" xmlns="http://www.w3.org/2000/svg" viewBox="0 0 62.53 62.53"><defs><style>.cls-1{fill:none;stroke:#3e474d;stroke-linecap:round;stroke-linejoin:round;stroke-width:2px;}.cls-2{fill:#9a9a9a;}.cls-3{fill:#44494f;}.cls-4{fill:#3e474d;}.cls-5{fill:#fff;}</style></defs><title>RELOJ</title><circle class="cls-1" cx="31.27" cy="31.27" r="30.27"/><circle class="cls-2" cx="31.27" cy="31.27" r="23.99"/><polygon class="cls-3" points="46.93 18.63 31.8 28.82 33.9 31.27 46.93 18.63 46.93 18.63"/><polygon class="cls-3" points="20.41 25.02 28.48 31.8 30.29 29.06 20.41 25.02 20.41 25.02"/><polygon class="cls-3" points="32.45 32.74 32.15 33.05 44.02 44.66 44.32 44.35 32.45 32.74 32.45 32.74"/><rect class="cls-4" x="30.95" y="7.27" width="0.97" height="2.46"/><rect class="cls-4" x="331.26" y="218.4" width="0.44" height="1.68" transform="translate(-134.55 -344.72) rotate(30.05)"/><rect class="cls-4" x="339.86" y="226.8" width="0.44" height="1.68" transform="translate(79.01 -388.85) rotate(60.1)"/><rect class="cls-4" x="340.1" y="250" width="0.44" height="1.68" transform="translate(439.41 -125.33) rotate(120.2)"/><rect class="cls-4" x="331.69" y="258.57" width="0.44" height="1.68" transform="translate(459.93 111.71) rotate(150.25)"/><rect class="cls-4" x="308.49" y="258.78" width="0.44" height="1.68" transform="translate(155.09 431.43) rotate(-149.66)"/><rect class="cls-4" x="299.94" y="250.34" width="0.44" height="1.68" transform="translate(-58.83 428.04) rotate(-119.6)"/><rect class="cls-4" x="299.8" y="227.13" width="0.44" height="1.68" transform="translate(-337.54 162.62) rotate(-59.51)"/><rect class="cls-4" x="308.27" y="218.61" width="0.44" height="1.68" transform="translate(-356.92 -28.11) rotate(-29.46)"/><rect class="cls-4" x="30.95" y="52.81" width="0.97" height="2.46"/><rect class="cls-4" x="342.43" y="238.23" width="0.97" height="2.46" transform="translate(293.49 -311.65) rotate(90)"/><rect class="cls-4" x="296.89" y="238.23" width="0.97" height="2.46" transform="translate(247.96 -266.11) rotate(90)"/><circle class="cls-5" cx="320.15" cy="239.46" r="2.76" transform="translate(-275.34 287.83) rotate(-76.72)"/><path class="cls-3" d="M320.15,237.6a1.86,1.86,0,1,0,1.86,1.86,1.86,1.86,0,0,0-1.86-1.86Z" transform="translate(-288.88 -208.19)"/></svg>