<svg id="Capa_1" data-name="Capa 1" xmlns="http://www.w3.org/2000/svg" viewBox="0 0 1916.7 642.19"><defs><style>.cls-1{fill:#211915;}.cls-2{fill:#666a6b;}.cls-3{fill:#cb6236;stroke:#cb6236;stroke-linecap:round;stroke-linejoin:round;stroke-width:3px;}</style></defs><title>LOGO LEO VOICEOVER </title><path class="cls-1" d="M663.05,403.84V208.55h45.06V366.8h63.74v37Z" transform="translate(-16.5 -205.62)"/><path class="cls-1" d="M787.56,403.84V208.55H900.21v37.3H832.62v40.23H892.5v35.7H832.62v44.76h67.59v37.3Z" transform="translate(-16.5 -205.62)"/><path class="cls-1" d="M997.15,406.77c-51.29,0-83.31-40-83.31-100.44s32.91-100.71,85.38-100.71c51.29,0,83.3,39.43,83.3,100.17C1082.52,366.27,1049.32,406.77,997.15,406.77ZM998,241.32c-23.42,0-37,24.25-37,64.74,0,40.23,13.63,65.27,37,65.27s37.36-25,37.36-65.27C1035.39,265.57,1021.45,241.32,998,241.32Z" transform="translate(-16.5 -205.62)"/><path class="cls-1" d="M1237,405.7l-88.64-102V403.84h-44.17V207.49l14.52-.8,87.75,99.64V208.55h44.47V404.9Z" transform="translate(-16.5 -205.62)"/><path class="cls-1" d="M1381.93,403.84,1370.37,370h-53.66l-11.56,33.84h-44.47l72.93-196.35h21l72.63,196.35ZM1343.69,284,1328,336.7h31.13Z" transform="translate(-16.5 -205.62)"/><path class="cls-1" d="M1527.48,403.84l-27.27-67.14a52.75,52.75,0,0,1-6.52.27c-4.45,0-7.71-.27-11.56-.54v67.41h-45.06v-194a425.66,425.66,0,0,1,49.8-2.93c57.81,0,83,29,83,63.41,0,24.25-10.67,41.83-31.12,54.35l37.94,79.13Zm-34.09-160.12a77.32,77.32,0,0,0-11.26.8V303.4a56.89,56.89,0,0,0,9.48.53c20.46,0,32.31-10.39,32.31-31.17C1523.92,254.64,1513.25,243.72,1493.39,243.72Z" transform="translate(-16.5 -205.62)"/><path class="cls-1" d="M1639.54,405.44c-17.79,0-30.54-1.07-47.73-2.94V209.88c16-1.59,29.65-2.93,46.84-2.93,70.85,0,106.72,37.57,106.72,97.78C1745.37,366,1710.39,405.44,1639.54,405.44Zm8.6-161.72c-4.45,0-7.12.27-11.27.53V368.14a87,87,0,0,0,12.75.8c32,0,48.62-25.05,48.62-63.94C1698.24,266.9,1679.86,243.72,1648.14,243.72Z" transform="translate(-16.5 -205.62)"/><path class="cls-1" d="M1843.79,406.77c-51.28,0-83.3-40-83.3-100.44s32.9-100.71,85.38-100.71c51.28,0,83.3,39.43,83.3,100.17C1929.17,366.27,1896,406.77,1843.79,406.77Zm.89-165.45c-23.42,0-37.06,24.25-37.06,64.74,0,40.23,13.64,65.27,37.06,65.27s37.35-25,37.35-65.27C1882,265.57,1868.1,241.32,1844.68,241.32Z" transform="translate(-16.5 -205.62)"/><path class="cls-1" d="M752.48,630.68,725.2,563.54a52.59,52.59,0,0,1-6.52.27c-4.44,0-7.71-.27-11.56-.54v67.41H662.06V436.73a423.24,423.24,0,0,1,49.8-2.94c57.81,0,83,29,83,63.41,0,24.25-10.67,41.83-31.13,54.35l38,79.13ZM718.39,470.56a77.46,77.46,0,0,0-11.27.8v58.88a57,57,0,0,0,9.49.53c20.45,0,32.31-10.39,32.31-31.17C748.92,481.48,738.25,470.56,718.39,470.56Z" transform="translate(-16.5 -205.62)"/><path class="cls-1" d="M882.62,633.61c-51.29,0-83.31-40-83.31-100.44s32.91-100.71,85.38-100.71c51.29,0,83.3,39.43,83.3,100.18C968,593.11,934.79,633.61,882.62,633.61Zm.89-165.45c-23.42,0-37.06,24.25-37.06,64.74,0,40.23,13.64,65.27,37.06,65.27s37.35-25,37.35-65.27C920.86,492.41,906.92,468.16,883.51,468.16Z" transform="translate(-16.5 -205.62)"/><path class="cls-1" d="M1027.57,632.28c-17.78,0-30.53-1.07-47.72-2.93V436.73c16-1.6,29.64-2.94,46.84-2.94,70.85,0,106.72,37.57,106.72,97.78C1133.41,592.85,1098.43,632.28,1027.57,632.28Zm8.6-161.72c-4.45,0-7.11.27-11.26.53V595a86.76,86.76,0,0,0,12.74.8c32,0,48.62-25,48.62-63.94C1086.27,493.74,1067.89,470.56,1036.17,470.56Z" transform="translate(-16.5 -205.62)"/><path class="cls-1" d="M1235.68,630.68l-27.28-67.14a52.59,52.59,0,0,1-6.52.27c-4.44,0-7.71-.27-11.56-.54v67.41h-45.06V436.73a423.24,423.24,0,0,1,49.8-2.94c57.81,0,83,29,83,63.41,0,24.25-10.67,41.83-31.13,54.35l38,79.13Zm-34.09-160.12a77.46,77.46,0,0,0-11.27.8v58.88a57,57,0,0,0,9.49.53c20.45,0,32.31-10.39,32.31-31.17C1232.12,481.48,1221.45,470.56,1201.59,470.56Z" transform="translate(-16.5 -205.62)"/><path class="cls-1" d="M1492.12,518.52v99.1c-17.49,10.66-38.54,16-61.36,16-51,0-89.53-36.5-89.53-99.91,0-60.21,38-101.24,91.9-101.24a104.76,104.76,0,0,1,55.43,15.72l-17.78,33.3c-11.27-6.66-23.12-11.19-36.17-11.19-29.64,0-46.24,24.78-46.24,63.15,0,42.09,19.26,64.73,44.76,64.73,7.71,0,13-.79,17.19-2.66V554h-29V518.52Z" transform="translate(-16.5 -205.62)"/><path class="cls-1" d="M1575.12,633.61c-43.58,0-71.44-21.58-71.44-66.87V435.39h45.06V567c0,18.92,9.19,30.11,27.87,30.11,18.38,0,27-11.19,27-30.11V435.39h45.06V566.74C1648.64,612.56,1619.29,633.61,1575.12,633.61Z" transform="translate(-16.5 -205.62)"/><path class="cls-1" d="M1665.24,630.68V435.39h112.65v37.3H1710.3v40.23h59.88v35.7H1710.3v44.76h67.59v37.3Z" transform="translate(-16.5 -205.62)"/><path class="cls-1" d="M1844.88,593.38h76.48v37.3H1780.55l-1.18-5.06,80.93-152.93h-75v-37.3h138.45l.89,5.33Z" transform="translate(-16.5 -205.62)"/><path class="cls-2" d="M726,846.77H706.42L665,653.53H692l24.63,130.65,23.87-130.65h26.66Z" transform="translate(-16.5 -205.62)"/><path class="cls-2" d="M862.34,847.81c-33.77,0-50.53-43.55-50.53-98.31s17-98.58,52.05-98.58c33.78,0,50.79,42.77,50.79,97.53S897.38,847.81,862.34,847.81Zm.76-173.16C847.87,674.65,839,703.08,839,749s8.89,74.85,24.12,74.85c15.49,0,24.38-29,24.38-74.85S878.59,674.65,863.1,674.65Z" transform="translate(-16.5 -205.62)"/><path class="cls-2" d="M974.07,844.94V653.79h26.41V844.94Z" transform="translate(-16.5 -205.62)"/><path class="cls-2" d="M1116.28,847.81c-30.48,0-56.38-34.94-56.38-97.53,0-59.72,23.87-99.36,57.14-99.36,11.42,0,19.8,2.87,29.71,10.69L1136.08,684c-6.09-5-11.68-7.83-19-7.83-16.25,0-30,25.82-30,71.72,0,49,14.22,74.33,31.49,74.33,6.86,0,12.44-2.87,18-7.57l9.65,22.17C1136.08,844.68,1126.94,847.81,1116.28,847.81Z" transform="translate(-16.5 -205.62)"/><path class="cls-2" d="M1199.32,844.94V653.79h74.14v25.29h-47.74v55h42.92v24.77h-42.92v60.77h47.74v25.29Z" transform="translate(-16.5 -205.62)"/><path class="cls-2" d="M1454.27,847.81c-33.77,0-50.53-43.55-50.53-98.31s17-98.58,52-98.58c33.78,0,50.79,42.77,50.79,97.53S1489.31,847.81,1454.27,847.81Zm.76-173.16c-15.23,0-24.12,28.43-24.12,74.32s8.89,74.85,24.12,74.85c15.49,0,24.38-29,24.38-74.85S1470.52,674.65,1455,674.65Z" transform="translate(-16.5 -205.62)"/><path class="cls-2" d="M1612,846.77h-19.56L1551,653.53h26.92l24.63,130.65,23.87-130.65h26.66Z" transform="translate(-16.5 -205.62)"/><path class="cls-2" d="M1707.2,844.94V653.79h74.14v25.29H1733.6v55h42.92v24.77H1733.6v60.77h47.74v25.29Z" transform="translate(-16.5 -205.62)"/><path class="cls-2" d="M1905,844.94l-22.6-72.76a58.73,58.73,0,0,1-7.11.53,67.45,67.45,0,0,1-7.36-.53v72.76h-26.41V654.31a183.53,183.53,0,0,1,28.44-2.09c41.39,0,59.67,28.69,59.67,60,0,25-9.14,40.69-24.37,51.12l27.93,81.62ZM1873,677c-2,0-2,.26-5.08.52v72.24a53.86,53.86,0,0,0,6.6.26c18.28,0,28.44-11.48,28.44-36.51C1903,690.56,1892.57,677,1873,677Z" transform="translate(-16.5 -205.62)"/><path class="cls-3" d="M592.09,564.64v29.12h-26l-26.85,58A14.86,14.86,0,0,1,524,660.2a14.67,14.67,0,0,1-12.87-11.61L478.32,487l-40.66,222.3a14.93,14.93,0,0,1-29.4-.75L365.14,373.38,313.86,824.17a14.74,14.74,0,0,1-14.57,13h-.21a14.73,14.73,0,0,1-14.7-12.61l-52.6-378.15L188.49,726.31a14.94,14.94,0,0,1-29.4.17L122.85,511.3l-16,71a14.85,14.85,0,0,1-14.53,11.44H32.87a14.56,14.56,0,1,1,0-29.12H80.41l30-133.51a14.94,14.94,0,0,1,29.19.74L173.15,631l44.7-289a14.76,14.76,0,0,1,14.7-12.35h.12a14.76,14.76,0,0,1,14.62,12.6l50.34,361.88,51.83-455.86a14.77,14.77,0,0,1,14.7-12.94h.09A14.75,14.75,0,0,1,379,248L425.6,610.15,462.9,406a14.94,14.94,0,0,1,29.23-.29l39.12,192.71,11.69-25.29a14.9,14.9,0,0,1,13.55-8.53Z" transform="translate(-16.5 -205.62)"/><path class="cls-1" d="M1296.66,630.68V485h38.71V630.68Z" transform="translate(-16.5 -205.62)"/><path class="cls-1" d="M1306,479.49l-9.37-13.25,38.7-32.77,15.77,23.47Z" transform="translate(-16.5 -205.62)"/></svg>