<svg id="Capa_1" data-name="Capa 1" xmlns="http://www.w3.org/2000/svg" viewBox="0 0 63.68 61.32"><defs><style>.cls-1,.cls-3{fill:none;stroke:#44494f;stroke-miterlimit:10;}.cls-1{stroke-width:4px;}.cls-2{fill:#44494f;}.cls-3{stroke-width:6px;}</style></defs><title>EDICION DE VIDEO</title><path class="cls-1" d="M296.2,257.84c-2.94,0-6.5-2.75-6.5-5.69V216.62A5.32,5.32,0,0,1,295,211.3h49.05a5.32,5.32,0,0,1,5.32,5.32v19.61" transform="translate(-287.7 -209.3)"/><rect class="cls-2" x="9.88" y="9.51" width="4.63" height="3.88"/><rect class="cls-2" x="9.88" y="18.18" width="4.63" height="3.88"/><rect class="cls-2" x="9.88" y="26.86" width="4.63" height="3.88"/><rect class="cls-2" x="48.92" y="9.51" width="4.63" height="3.88"/><rect class="cls-2" x="48.92" y="18.18" width="4.63" height="3.88"/><rect class="cls-2" x="9.88" y="35.53" width="4.63" height="3.88"/><polygon class="cls-2" points="49.06 36.3 56.85 31.24 62.99 31.24 52.49 38.54 49.06 36.3"/><polygon class="cls-2" points="35.61 49.9 45.41 43.23 56.77 50.8 62.99 50.8 35.28 31.83 33.49 35.26 42.02 41 33.97 46.51 35.61 49.9"/><circle class="cls-3" cx="27.92" cy="30.91" r="6.6"/><circle class="cls-3" cx="28.63" cy="51.72" r="6.6"/><polygon class="cls-2" points="48.92 30.74 48.92 26.86 53.55 26.86 53.55 29.61 51.55 30.74 48.92 30.74"/></svg>