<svg id="Capa_1" data-name="Capa 1" xmlns="http://www.w3.org/2000/svg" viewBox="0 0 41.37 29.28"><defs><style>.cls-1{fill:#666a6b;}</style></defs><title>icono youtube</title><path class="cls-1" d="M507.64,278.56H483.46a8.59,8.59,0,0,0-8.6,8.59v12.09a8.59,8.59,0,0,0,8.6,8.59h24.18a8.59,8.59,0,0,0,8.6-8.59V287.15A8.59,8.59,0,0,0,507.64,278.56Zm-5.81,15.22-11.31,5.4a.46.46,0,0,1-.65-.41V287.64a.46.46,0,0,1,.66-.41L501.84,293A.45.45,0,0,1,501.83,293.78Z" transform="translate(-474.86 -278.56)"/></svg>