<svg id="Capa_1" data-name="Capa 1" xmlns="http://www.w3.org/2000/svg" viewBox="0 0 43.66 21.83"><defs><style>.cls-1{fill:#666a6b;}</style></defs><title>icono icloud</title><path class="cls-1" d="M484.68,304.11h2.73V286.92a7.12,7.12,0,0,0-2.73,1.51Zm-5.45-11.63v11.61l.17,0H482V292.47h-2.72Zm-5.46,5.81a5.83,5.83,0,0,0,2.73,5v-9.93A5.85,5.85,0,0,0,473.77,298.29Zm16.37,5.82h2.73V287.68a6.82,6.82,0,0,0-2.73-1Zm21.66-11.64h-1.54a8.81,8.81,0,0,0,.13-1.46,8.6,8.6,0,0,0-8.45-8.73,8.27,8.27,0,0,0-6.34,3v18.84h16.2a5.82,5.82,0,0,0,0-11.64Z" transform="translate(-473.77 -282.28)"/></svg>