<svg id="Capa_1" data-name="Capa 1" xmlns="http://www.w3.org/2000/svg" viewBox="0 0 38.05 38.32"><defs><style>.cls-1{fill:#666a6b;}</style></defs><title>icono instagram</title><path class="cls-1" d="M495.65,286.53a6.66,6.66,0,1,0,6.66,6.66A6.67,6.67,0,0,0,495.65,286.53Z" transform="translate(-476.63 -274.03)"/><path class="cls-1" d="M506.51,274H484.79a8.08,8.08,0,0,0-8.16,8v22.37a8.07,8.07,0,0,0,8.16,8h21.72a8.07,8.07,0,0,0,8.16-8V282A8.08,8.08,0,0,0,506.51,274Zm-10.86,29.11a9.95,9.95,0,1,1,9.94-9.95A10,10,0,0,1,495.65,303.14Zm10.67-18.07a2.33,2.33,0,1,1,2.33-2.32A2.32,2.32,0,0,1,506.32,285.07Z" transform="translate(-476.63 -274.03)"/></svg>