<svg id="Capa_1" data-name="Capa 1" xmlns="http://www.w3.org/2000/svg" viewBox="0 0 35.98 64.57"><defs><style>.cls-1{fill:#44494f;}</style></defs><title>MICROFONO</title><path class="cls-1" d="M522.7,416.74H500.5a.81.81,0,0,1-.81-.81.82.82,0,0,1,.81-.82h22.2a.82.82,0,0,1,.81.82A.81.81,0,0,1,522.7,416.74Z" transform="translate(-493.61 -352.17)"/><path class="cls-1" d="M511.6,416.74a.82.82,0,0,1-.82-.81V401.67a.82.82,0,0,1,.82-.81.81.81,0,0,1,.81.81v14.26A.81.81,0,0,1,511.6,416.74Z" transform="translate(-493.61 -352.17)"/><path class="cls-1" d="M511.71,395.2h-.22a11.82,11.82,0,0,1-11.8-11.81V364a11.82,11.82,0,0,1,11.8-11.81h.22A11.82,11.82,0,0,1,523.51,364v19.41A11.82,11.82,0,0,1,511.71,395.2Zm-.22-41.4A10.19,10.19,0,0,0,501.32,364v19.41a10.18,10.18,0,0,0,10.17,10.17h.22a10.18,10.18,0,0,0,10.17-10.17V364a10.19,10.19,0,0,0-10.17-10.18Z" transform="translate(-493.61 -352.17)"/><path class="cls-1" d="M511.71,401.27h-.22a17.87,17.87,0,0,1-17.88-17.88.81.81,0,0,1,.81-.81.82.82,0,0,1,.82.81,16.25,16.25,0,0,0,16.25,16.25h.22A16.25,16.25,0,0,0,528,383.39a.82.82,0,0,1,.82-.81.81.81,0,0,1,.81.81,17.87,17.87,0,0,1-17.88,17.88Z" transform="translate(-493.61 -352.17)"/><path class="cls-1" d="M511.71,395.2h-.22a11.82,11.82,0,0,1-11.8-11.81V364a11.82,11.82,0,0,1,11.8-11.81h.22A11.82,11.82,0,0,1,523.51,364v19.41A11.82,11.82,0,0,1,511.71,395.2Zm-.22-41.4A10.19,10.19,0,0,0,501.32,364v19.41a10.18,10.18,0,0,0,10.17,10.17h.22a10.18,10.18,0,0,0,10.17-10.17V364a10.19,10.19,0,0,0-10.17-10.18Z" transform="translate(-493.61 -352.17)"/><path class="cls-1" d="M520.16,364.79a.81.81,0,0,1-.82-.81,7.64,7.64,0,0,0-7.63-7.63.82.82,0,0,1-.81-.82.81.81,0,0,1,.81-.81A9.27,9.27,0,0,1,521,364,.81.81,0,0,1,520.16,364.79Z" transform="translate(-493.61 -352.17)"/></svg>